<svg id="Layer_1" data-name="Layer 1" xmlns="http://www.w3.org/2000/svg" viewBox="0 0 615.18 124.49"><defs><style>.cls-1{fill:#25feaa;}.cls-2{font-size:105px;fill:#fff;font-family:VastagoGrotesk-Medium, Vastago Grotesk;font-weight:500;}</style></defs><path class="cls-1" d="M222,504.42h25.6a3.06,3.06,0,0,1,3.06,3.06v86.88a0,0,0,0,1,0,0h-33a0,0,0,0,1,0,0V508.81a4.39,4.39,0,0,1,4.39-4.39Z" transform="translate(-215.88 -470.67) rotate(0.16)"/><path class="cls-1" d="M350.85,594.39l33.2-.2-.05-88.4a3.07,3.07,0,0,0-.87-2.14l-31.36-32.11a3.08,3.08,0,0,0-2.12-.92L320.21,470a3.06,3.06,0,0,0-3.12,3.05l-.1,33.45,29.85-.23a3.05,3.05,0,0,1,3.08,3Z" transform="translate(-217.44 -470.01)"/><path class="cls-1" d="M283.54,594.51l33.2-.21,0-88.4a3.07,3.07,0,0,0-.87-2.13l-31.36-32.12a3.1,3.1,0,0,0-2.13-.92l-29.44-.61a3.06,3.06,0,0,0-3.12,3.05l-.09,33.45,29.85-.23a3.06,3.06,0,0,1,3.08,3Z" transform="translate(-217.44 -470.01)"/><text class="cls-2" transform="translate(207.79 94.72)">morlabs</text></svg>